<mxfile host="app.diagrams.net" agent="Mozilla/5.0 (Macintosh; Intel Mac OS X 10_15_7) AppleWebKit/537.36 (KHTML, like Gecko) Chrome/131.0.0.0 Safari/537.36" version="26.0.4">
  <diagram name="Page-1" id="e7e014a7-5840-1c2e-5031-d8a46d1fe8dd">
    <mxGraphModel dx="954" dy="510" grid="1" gridSize="10" guides="1" tooltips="1" connect="1" arrows="1" fold="1" page="1" pageScale="1" pageWidth="1169" pageHeight="826" background="none" math="0" shadow="0">
      <root>
        <mxCell id="0" />
        <mxCell id="1" parent="0" />
        <mxCell id="AzsXfvl7_za_9XrSygQ8-41" value="Player{&lt;div&gt;String id;&lt;/div&gt;&lt;div&gt;int currentPosition;&lt;/div&gt;&lt;div&gt;}&lt;/div&gt;" style="rounded=0;whiteSpace=wrap;html=1;" vertex="1" parent="1">
          <mxGeometry x="690" y="370" width="220" height="70" as="geometry" />
        </mxCell>
        <mxCell id="AzsXfvl7_za_9XrSygQ8-42" value="Dice&lt;div&gt;int diceCount;&lt;/div&gt;&lt;div&gt;int rollDice();&lt;/div&gt;" style="rounded=0;whiteSpace=wrap;html=1;" vertex="1" parent="1">
          <mxGeometry x="500" y="370" width="120" height="60" as="geometry" />
        </mxCell>
        <mxCell id="AzsXfvl7_za_9XrSygQ8-43" value="Jump&lt;div&gt;int start;&lt;/div&gt;&lt;div&gt;int end;&lt;/div&gt;" style="rounded=0;whiteSpace=wrap;html=1;" vertex="1" parent="1">
          <mxGeometry x="310" y="370" width="120" height="60" as="geometry" />
        </mxCell>
        <mxCell id="AzsXfvl7_za_9XrSygQ8-44" value="Cells&lt;div&gt;Jump jump;&lt;/div&gt;" style="rounded=0;whiteSpace=wrap;html=1;" vertex="1" parent="1">
          <mxGeometry x="180" y="250" width="120" height="60" as="geometry" />
        </mxCell>
        <mxCell id="AzsXfvl7_za_9XrSygQ8-45" value="Board&lt;div&gt;Cells[][] cells;&lt;/div&gt;" style="rounded=0;whiteSpace=wrap;html=1;" vertex="1" parent="1">
          <mxGeometry x="190" y="130" width="120" height="60" as="geometry" />
        </mxCell>
        <mxCell id="AzsXfvl7_za_9XrSygQ8-46" value="Game&lt;div&gt;Board board;&lt;/div&gt;&lt;div&gt;Dice Dice;&lt;/div&gt;&lt;div&gt;Deque&amp;lt;Player&amp;gt; playerList;&lt;/div&gt;" style="rounded=0;whiteSpace=wrap;html=1;" vertex="1" parent="1">
          <mxGeometry x="500" y="60" width="280" height="180" as="geometry" />
        </mxCell>
        <mxCell id="AzsXfvl7_za_9XrSygQ8-47" value="" style="endArrow=classic;html=1;rounded=0;entryX=0.159;entryY=-0.043;entryDx=0;entryDy=0;entryPerimeter=0;exitX=0.75;exitY=1;exitDx=0;exitDy=0;" edge="1" parent="1" source="AzsXfvl7_za_9XrSygQ8-46" target="AzsXfvl7_za_9XrSygQ8-41">
          <mxGeometry width="50" height="50" relative="1" as="geometry">
            <mxPoint x="530" y="290" as="sourcePoint" />
            <mxPoint x="580" y="240" as="targetPoint" />
          </mxGeometry>
        </mxCell>
        <mxCell id="AzsXfvl7_za_9XrSygQ8-48" value="" style="endArrow=classic;html=1;rounded=0;entryX=0.442;entryY=-0.067;entryDx=0;entryDy=0;entryPerimeter=0;exitX=0.314;exitY=1.017;exitDx=0;exitDy=0;exitPerimeter=0;" edge="1" parent="1" source="AzsXfvl7_za_9XrSygQ8-46" target="AzsXfvl7_za_9XrSygQ8-42">
          <mxGeometry width="50" height="50" relative="1" as="geometry">
            <mxPoint x="530" y="290" as="sourcePoint" />
            <mxPoint x="580" y="240" as="targetPoint" />
          </mxGeometry>
        </mxCell>
        <mxCell id="AzsXfvl7_za_9XrSygQ8-49" value="" style="endArrow=classic;html=1;rounded=0;entryX=1;entryY=0.5;entryDx=0;entryDy=0;exitX=0.007;exitY=0.689;exitDx=0;exitDy=0;exitPerimeter=0;" edge="1" parent="1" source="AzsXfvl7_za_9XrSygQ8-46" target="AzsXfvl7_za_9XrSygQ8-45">
          <mxGeometry width="50" height="50" relative="1" as="geometry">
            <mxPoint x="490" y="180" as="sourcePoint" />
            <mxPoint x="580" y="240" as="targetPoint" />
          </mxGeometry>
        </mxCell>
        <mxCell id="AzsXfvl7_za_9XrSygQ8-50" value="" style="endArrow=classic;html=1;rounded=0;exitX=0.5;exitY=1;exitDx=0;exitDy=0;entryX=-0.033;entryY=0.367;entryDx=0;entryDy=0;entryPerimeter=0;" edge="1" parent="1" source="AzsXfvl7_za_9XrSygQ8-44" target="AzsXfvl7_za_9XrSygQ8-43">
          <mxGeometry width="50" height="50" relative="1" as="geometry">
            <mxPoint x="530" y="290" as="sourcePoint" />
            <mxPoint x="580" y="240" as="targetPoint" />
            <Array as="points">
              <mxPoint x="230" y="370" />
            </Array>
          </mxGeometry>
        </mxCell>
        <mxCell id="AzsXfvl7_za_9XrSygQ8-51" value="" style="endArrow=classic;html=1;rounded=0;entryX=0.608;entryY=-0.067;entryDx=0;entryDy=0;entryPerimeter=0;exitX=0.575;exitY=1.017;exitDx=0;exitDy=0;exitPerimeter=0;" edge="1" parent="1" source="AzsXfvl7_za_9XrSygQ8-45" target="AzsXfvl7_za_9XrSygQ8-44">
          <mxGeometry width="50" height="50" relative="1" as="geometry">
            <mxPoint x="530" y="290" as="sourcePoint" />
            <mxPoint x="580" y="240" as="targetPoint" />
          </mxGeometry>
        </mxCell>
      </root>
    </mxGraphModel>
  </diagram>
</mxfile>
